<?xml version="1.0" standalone="no"?>
<!DOCTYPE svg PUBLIC "-//W3C//DTD SVG 20010904//EN"
 "http://www.w3.org/TR/2001/REC-SVG-20010904/DTD/svg10.dtd">
<svg version="1.0" xmlns="http://www.w3.org/2000/svg"
 width="192.000000pt" height="192.000000pt" viewBox="0 0 192.000000 192.000000"
 preserveAspectRatio="xMidYMid meet">

<g transform="translate(0.000000,192.000000) scale(0.100000,-0.100000)"
fill="#000000" stroke="none">
<path d="M781 1865 c-356 -80 -602 -307 -707 -651 -26 -82 -28 -103 -28 -254
0 -151 2 -172 28 -254 99 -326 321 -542 653 -638 66 -19 102 -23 233 -23 131
0 167 4 233 23 332 96 554 312 653 638 26 82 28 103 28 254 0 151 -2 172 -28
254 -97 318 -317 538 -632 632 -111 33 -328 43 -433 19z m424 -65 c146 -46
262 -116 371 -224 282 -281 339 -703 141 -1056 -57 -103 -214 -260 -317 -317
-359 -201 -780 -141 -1065 151 -224 230 -301 548 -209 865 10 35 18 50 24 42
5 -8 10 1 14 26 7 38 51 143 64 153 4 3 20 23 36 45 116 161 307 282 518 330
95 22 331 13 423 -15z"/>
<path d="M806 1595 c-148 -28 -309 -114 -341 -182 -15 -30 -16 -44 -6 -92 22
-107 84 -155 291 -221 140 -45 194 -72 223 -112 27 -36 16 -72 -31 -102 -49
-33 -125 -45 -310 -53 -84 -3 -155 -9 -157 -13 -2 -3 5 -20 15 -37 23 -39 133
-93 252 -125 261 -69 617 24 699 183 31 63 35 118 10 168 -28 53 -85 109 -148
143 -26 15 -111 47 -187 73 -142 46 -188 68 -221 105 -26 29 -10 78 35 105 55
32 240 28 378 -8 56 -15 105 -27 107 -27 8 0 -18 54 -42 87 -59 82 -380 143
-567 108z"/>
<path d="M350 1505 c-105 -246 -105 -517 1 -727 27 -54 50 -71 64 -48 3 5 -8
36 -24 69 -94 184 -97 436 -11 660 16 41 27 78 24 83 -13 20 -36 4 -54 -37z"/>
<path d="M1435 1530 c-3 -5 10 -43 29 -82 92 -188 98 -393 20 -627 -34 -101
-37 -131 -14 -131 15 0 56 94 83 193 18 69 22 107 22 242 0 141 -3 168 -23
230 -44 132 -96 209 -117 175z"/>
<path d="M225 1420 c-19 -30 -56 -163 -66 -235 -18 -129 15 -296 73 -370 34
-44 43 -15 14 44 -71 138 -73 331 -6 500 11 28 20 56 20 61 0 13 -27 13 -35 0z"/>
<path d="M1586 1421 c-4 -5 3 -25 14 -44 27 -46 60 -179 60 -243 0 -72 -24
-191 -54 -264 -21 -52 -22 -62 -9 -67 20 -8 28 6 60 102 20 60 27 107 31 189
5 124 -8 199 -47 277 -26 52 -44 69 -55 50z"/>
<path d="M142 1220 c0 -14 2 -19 5 -12 2 6 2 18 0 25 -3 6 -5 1 -5 -13z"/>
<path d="M444 516 c-8 -21 3 -36 26 -36 18 0 20 -9 22 -107 3 -103 4 -108 26
-111 22 -3 22 -2 22 107 l0 110 28 3 c19 2 27 9 27 23 0 18 -8 20 -73 23 -57
2 -74 0 -78 -12z"/>
<path d="M647 524 c-4 -4 -7 -56 -7 -116 0 -126 11 -148 78 -148 64 0 72 18
72 153 0 110 -1 117 -20 117 -24 0 -22 8 -26 -115 -3 -99 -3 -100 -28 -103
l-25 -3 -3 108 c-2 88 -6 108 -18 111 -9 1 -19 0 -23 -4z"/>
<path d="M840 394 c0 -135 0 -135 23 -132 19 3 23 10 27 61 l5 58 23 -60 c20
-51 27 -61 48 -61 l24 0 0 136 c0 135 0 135 -22 132 -20 -3 -24 -10 -28 -61
l-5 -58 -23 60 c-20 51 -27 61 -48 61 l-24 0 0 -136z"/>
<path d="M1030 395 c0 -136 0 -136 23 -133 22 3 22 6 22 133 0 127 0 130 -22
133 -23 3 -23 3 -23 -133z"/>
<path d="M1120 395 c0 -136 0 -136 23 -133 20 3 22 8 22 66 0 37 3 56 7 45 48
-115 48 -114 70 -111 23 3 23 6 23 133 0 127 0 130 -22 133 -22 3 -23 0 -23
-65 l-1 -68 -27 65 c-21 49 -33 66 -50 68 -22 3 -22 2 -22 -133z"/>
<path d="M1336 509 c-25 -19 -26 -25 -26 -115 0 -109 14 -134 75 -134 52 0 75
28 75 91 l0 50 -37 -3 c-31 -2 -39 -7 -41 -25 -2 -16 2 -23 12 -23 9 0 16 -8
16 -20 0 -15 -7 -20 -25 -20 -25 0 -25 1 -25 85 0 92 3 97 55 73 20 -9 28 -9
38 1 9 10 6 17 -16 37 -34 29 -66 31 -101 3z"/>
</g>
</svg>
